<svg width="24" height="24" viewBox="0 0 24 24" fill="none" xmlns="http://www.w3.org/2000/svg">
<path d="M9.5 16H14.5C14.9167 16 15.2708 15.8542 15.5625 15.5625C15.8542 15.2708 16 14.9167 16 14.5V11.5C16 11.0833 15.8542 10.7292 15.5625 10.4375C15.2708 10.1458 14.9167 10 14.5 10V8.5C14.5 7.8 14.2583 7.20833 13.775 6.725C13.2917 6.24167 12.7 6 12 6C11.3 6 10.7083 6.24167 10.225 6.725C9.74167 7.20833 9.5 7.8 9.5 8.5H11C11 8.21667 11.0958 7.97917 11.2875 7.7875C11.4792 7.59583 11.7167 7.5 12 7.5C12.2833 7.5 12.5208 7.59583 12.7125 7.7875C12.9042 7.97917 13 8.21667 13 8.5V10H9.5C9.08333 10 8.72917 10.1458 8.4375 10.4375C8.14583 10.7292 8 11.0833 8 11.5V14.5C8 14.9167 8.14583 15.2708 8.4375 15.5625C8.72917 15.8542 9.08333 16 9.5 16ZM12 22C10.6167 22 9.31667 21.7375 8.1 21.2125C6.88333 20.6875 5.825 19.975 4.925 19.075C4.025 18.175 3.3125 17.1167 2.7875 15.9C2.2625 14.6833 2 13.3833 2 12C2 10.6167 2.2625 9.31667 2.7875 8.1C3.3125 6.88333 4.025 5.825 4.925 4.925C5.825 4.025 6.88333 3.3125 8.1 2.7875C9.31667 2.2625 10.6167 2 12 2C13.3833 2 14.6833 2.2625 15.9 2.7875C17.1167 3.3125 18.175 4.025 19.075 4.925C19.975 5.825 20.6875 6.88333 21.2125 8.1C21.7375 9.31667 22 10.6167 22 12C22 13.3833 21.7375 14.6833 21.2125 15.9C20.6875 17.1167 19.975 18.175 19.075 19.075C18.175 19.975 17.1167 20.6875 15.9 21.2125C14.6833 21.7375 13.3833 22 12 22ZM12 20C14.2333 20 16.125 19.225 17.675 17.675C19.225 16.125 20 14.2333 20 12C20 9.76667 19.225 7.875 17.675 6.325C16.125 4.775 14.2333 4 12 4C9.76667 4 7.875 4.775 6.325 6.325C4.775 7.875 4 9.76667 4 12C4 14.2333 4.775 16.125 6.325 17.675C7.875 19.225 9.76667 20 12 20Z" fill="#020617"/>
</svg>
